<?xml version="1.0" encoding="utf-8"?><svg width="auto" height="3270" style="overflow:visible " version="1.1" xmlns="http://www.w3.org/2000/svg"><rect x="20" y="20" width="200" height="40" style="fill:white;stroke:black;stroke-width:1" /><text x="30" y="30" font-size="10" style="fill:blue">circuito</text><text x="30" y="40" font-size="8" style="fill:black">xsi:schemaLocation: http://www.uniovi.es circuito.xsd</text><text x="30" y="50" font-size="8" style="fill:black">xmlns:xsi: http://www.w3.org/2001/XMLSchema-instance</text><text x="30" y="60" font-size="8" style="fill:black">xmlns: http://www.uniovi.es</text><rect x="240" y="20" width="200" height="40" style="fill:white;stroke:black;stroke-width:1" /><text x="250" y="30" font-size="10" style="fill:blue">nombre</text><path d="M220 40 C240 40 220 40 240 40" style="fill:transparent;stroke:black" /><rect x="306" y="20" width="137" height="40" style="fill:green;stroke:black;stroke-width:1" /><text x="316" y="30" font-size="8" style="fill:white">Lusail International Circuit</text><rect x="240" y="70" width="200" height="40" style="fill:white;stroke:black;stroke-width:1" /><text x="250" y="80" font-size="10" style="fill:blue">datosFisicos</text><path d="M220 40 C240 40 220 90 240 90" style="fill:transparent;stroke:black" /><rect x="460" y="70" width="200" height="40" style="fill:white;stroke:black;stroke-width:1" /><text x="470" y="80" font-size="10" style="fill:blue">longitudCircuito</text><path d="M440 90 C460 90 440 90 460 90" style="fill:transparent;stroke:black" /><text x="470" y="90" font-size="8" style="fill:black">unidad: metros</text><rect x="526" y="70" width="137" height="40" style="fill:green;stroke:black;stroke-width:1" /><text x="536" y="80" font-size="8" style="fill:white">5380</text><rect x="460" y="120" width="200" height="40" style="fill:white;stroke:black;stroke-width:1" /><text x="470" y="130" font-size="10" style="fill:blue">anchura</text><path d="M440 90 C460 90 440 140 460 140" style="fill:transparent;stroke:black" /><text x="470" y="140" font-size="8" style="fill:black">unidad: metros</text><rect x="526" y="120" width="137" height="40" style="fill:green;stroke:black;stroke-width:1" /><text x="536" y="130" font-size="8" style="fill:white">12</text><rect x="240" y="220" width="200" height="40" style="fill:white;stroke:black;stroke-width:1" /><text x="250" y="230" font-size="10" style="fill:blue">evento</text><path d="M220 40 C240 40 220 240 240 240" style="fill:transparent;stroke:black" /><rect x="460" y="220" width="200" height="40" style="fill:white;stroke:black;stroke-width:1" /><text x="470" y="230" font-size="10" style="fill:blue">fecha</text><path d="M440 240 C460 240 440 240 460 240" style="fill:transparent;stroke:black" /><rect x="526" y="220" width="137" height="40" style="fill:green;stroke:black;stroke-width:1" /><text x="536" y="230" font-size="8" style="fill:white">2026-03-01</text><rect x="460" y="270" width="200" height="40" style="fill:white;stroke:black;stroke-width:1" /><text x="470" y="280" font-size="10" style="fill:blue">hora</text><path d="M440 240 C460 240 440 290 460 290" style="fill:transparent;stroke:black" /><rect x="526" y="270" width="137" height="40" style="fill:green;stroke:black;stroke-width:1" /><text x="536" y="280" font-size="8" style="fill:white">18:00</text><rect x="460" y="320" width="200" height="40" style="fill:white;stroke:black;stroke-width:1" /><text x="470" y="330" font-size="10" style="fill:blue">vueltas</text><path d="M440 240 C460 240 440 340 460 340" style="fill:transparent;stroke:black" /><rect x="526" y="320" width="137" height="40" style="fill:green;stroke:black;stroke-width:1" /><text x="536" y="330" font-size="8" style="fill:white">22</text><rect x="460" y="370" width="200" height="40" style="fill:white;stroke:black;stroke-width:1" /><text x="470" y="380" font-size="10" style="fill:blue">patrocinador</text><path d="M440 240 C460 240 440 390 460 390" style="fill:transparent;stroke:black" /><rect x="526" y="370" width="137" height="40" style="fill:green;stroke:black;stroke-width:1" /><text x="536" y="380" font-size="8" style="fill:white">Gran Premio de Qatar Airways</text><rect x="240" y="470" width="200" height="40" style="fill:white;stroke:black;stroke-width:1" /><text x="250" y="480" font-size="10" style="fill:blue">localizacion</text><path d="M220 40 C240 40 220 490 240 490" style="fill:transparent;stroke:black" /><rect x="460" y="470" width="200" height="40" style="fill:white;stroke:black;stroke-width:1" /><text x="470" y="480" font-size="10" style="fill:blue">localidad</text><path d="M440 490 C460 490 440 490 460 490" style="fill:transparent;stroke:black" /><rect x="526" y="470" width="137" height="40" style="fill:green;stroke:black;stroke-width:1" /><text x="536" y="480" font-size="8" style="fill:white">Lusail</text><rect x="460" y="520" width="200" height="40" style="fill:white;stroke:black;stroke-width:1" /><text x="470" y="530" font-size="10" style="fill:blue">pais</text><path d="M440 490 C460 490 440 540 460 540" style="fill:transparent;stroke:black" /><rect x="526" y="520" width="137" height="40" style="fill:green;stroke:black;stroke-width:1" /><text x="536" y="530" font-size="8" style="fill:white">Qatar</text><rect x="460" y="570" width="200" height="40" style="fill:white;stroke:black;stroke-width:1" /><text x="470" y="580" font-size="10" style="fill:blue">origen</text><path d="M440 490 C460 490 440 590 460 590" style="fill:transparent;stroke:black" /><rect x="680" y="570" width="200" height="40" style="fill:white;stroke:black;stroke-width:1" /><text x="690" y="580" font-size="10" style="fill:blue">longitud</text><path d="M660 590 C680 590 660 590 680 590" style="fill:transparent;stroke:black" /><text x="690" y="590" font-size="8" style="fill:black">unidad: grados</text><rect x="746" y="570" width="137" height="40" style="fill:green;stroke:black;stroke-width:1" /><text x="756" y="580" font-size="8" style="fill:white">51.4552</text><rect x="680" y="620" width="200" height="40" style="fill:white;stroke:black;stroke-width:1" /><text x="690" y="630" font-size="10" style="fill:blue">latitud</text><path d="M660 590 C680 590 660 640 680 640" style="fill:transparent;stroke:black" /><text x="690" y="640" font-size="8" style="fill:black">unidad: grados</text><rect x="746" y="620" width="137" height="40" style="fill:green;stroke:black;stroke-width:1" /><text x="756" y="630" font-size="8" style="fill:white">25.4907</text><rect x="680" y="670" width="200" height="40" style="fill:white;stroke:black;stroke-width:1" /><text x="690" y="680" font-size="10" style="fill:blue">altitud</text><path d="M660 590 C680 590 660 690 680 690" style="fill:transparent;stroke:black" /><text x="690" y="690" font-size="8" style="fill:black">unidad: metros</text><rect x="746" y="670" width="137" height="40" style="fill:green;stroke:black;stroke-width:1" /><text x="756" y="680" font-size="8" style="fill:white">1</text><rect x="240" y="820" width="200" height="40" style="fill:white;stroke:black;stroke-width:1" /><text x="250" y="830" font-size="10" style="fill:blue">tramos</text><path d="M220 40 C240 40 220 840 240 840" style="fill:transparent;stroke:black" /><rect x="460" y="820" width="200" height="40" style="fill:white;stroke:black;stroke-width:1" /><text x="470" y="830" font-size="10" style="fill:blue">tramo</text><path d="M440 840 C460 840 440 840 460 840" style="fill:transparent;stroke:black" /><rect x="680" y="820" width="200" height="40" style="fill:white;stroke:black;stroke-width:1" /><text x="690" y="830" font-size="10" style="fill:blue">distancia</text><path d="M660 840 C680 840 660 840 680 840" style="fill:transparent;stroke:black" /><text x="690" y="840" font-size="8" style="fill:black">unidad: metros</text><rect x="746" y="820" width="137" height="40" style="fill:green;stroke:black;stroke-width:1" /><text x="756" y="830" font-size="8" style="fill:white">1800</text><rect x="680" y="870" width="200" height="40" style="fill:white;stroke:black;stroke-width:1" /><text x="690" y="880" font-size="10" style="fill:blue">coordenadas</text><path d="M660 840 C680 840 660 890 680 890" style="fill:transparent;stroke:black" /><rect x="900" y="870" width="200" height="40" style="fill:white;stroke:black;stroke-width:1" /><text x="910" y="880" font-size="10" style="fill:blue">longitud</text><path d="M880 890 C900 890 880 890 900 890" style="fill:transparent;stroke:black" /><text x="910" y="890" font-size="8" style="fill:black">unidad: grados</text><rect x="966" y="870" width="137" height="40" style="fill:green;stroke:black;stroke-width:1" /><text x="976" y="880" font-size="8" style="fill:white">51.4560</text><rect x="900" y="920" width="200" height="40" style="fill:white;stroke:black;stroke-width:1" /><text x="910" y="930" font-size="10" style="fill:blue">latitud</text><path d="M880 890 C900 890 880 940 900 940" style="fill:transparent;stroke:black" /><text x="910" y="940" font-size="8" style="fill:black">unidad: grados</text><rect x="966" y="920" width="137" height="40" style="fill:green;stroke:black;stroke-width:1" /><text x="976" y="930" font-size="8" style="fill:white">25.4890</text><rect x="900" y="970" width="200" height="40" style="fill:white;stroke:black;stroke-width:1" /><text x="910" y="980" font-size="10" style="fill:blue">altitud</text><path d="M880 890 C900 890 880 990 900 990" style="fill:transparent;stroke:black" /><text x="910" y="990" font-size="8" style="fill:black">unidad: metros</text><rect x="966" y="970" width="137" height="40" style="fill:green;stroke:black;stroke-width:1" /><text x="976" y="980" font-size="8" style="fill:white">1</text><rect x="680" y="1070" width="200" height="40" style="fill:white;stroke:black;stroke-width:1" /><text x="690" y="1080" font-size="10" style="fill:blue">sector</text><path d="M660 840 C680 840 660 1090 680 1090" style="fill:transparent;stroke:black" /><rect x="746" y="1070" width="137" height="40" style="fill:green;stroke:black;stroke-width:1" /><text x="756" y="1080" font-size="8" style="fill:white">1</text><rect x="460" y="1170" width="200" height="40" style="fill:white;stroke:black;stroke-width:1" /><text x="470" y="1180" font-size="10" style="fill:blue">tramo</text><path d="M440 840 C460 840 440 1190 460 1190" style="fill:transparent;stroke:black" /><rect x="680" y="1170" width="200" height="40" style="fill:white;stroke:black;stroke-width:1" /><text x="690" y="1180" font-size="10" style="fill:blue">distancia</text><path d="M660 1190 C680 1190 660 1190 680 1190" style="fill:transparent;stroke:black" /><text x="690" y="1190" font-size="8" style="fill:black">unidad: metros</text><rect x="746" y="1170" width="137" height="40" style="fill:green;stroke:black;stroke-width:1" /><text x="756" y="1180" font-size="8" style="fill:white">1800</text><rect x="680" y="1220" width="200" height="40" style="fill:white;stroke:black;stroke-width:1" /><text x="690" y="1230" font-size="10" style="fill:blue">coordenadas</text><path d="M660 1190 C680 1190 660 1240 680 1240" style="fill:transparent;stroke:black" /><rect x="900" y="1220" width="200" height="40" style="fill:white;stroke:black;stroke-width:1" /><text x="910" y="1230" font-size="10" style="fill:blue">longitud</text><path d="M880 1240 C900 1240 880 1240 900 1240" style="fill:transparent;stroke:black" /><text x="910" y="1240" font-size="8" style="fill:black">unidad: grados</text><rect x="966" y="1220" width="137" height="40" style="fill:green;stroke:black;stroke-width:1" /><text x="976" y="1230" font-size="8" style="fill:white">51.4580</text><rect x="900" y="1270" width="200" height="40" style="fill:white;stroke:black;stroke-width:1" /><text x="910" y="1280" font-size="10" style="fill:blue">latitud</text><path d="M880 1240 C900 1240 880 1290 900 1290" style="fill:transparent;stroke:black" /><text x="910" y="1290" font-size="8" style="fill:black">unidad: grados</text><rect x="966" y="1270" width="137" height="40" style="fill:green;stroke:black;stroke-width:1" /><text x="976" y="1280" font-size="8" style="fill:white">25.4920</text><rect x="900" y="1320" width="200" height="40" style="fill:white;stroke:black;stroke-width:1" /><text x="910" y="1330" font-size="10" style="fill:blue">altitud</text><path d="M880 1240 C900 1240 880 1340 900 1340" style="fill:transparent;stroke:black" /><text x="910" y="1340" font-size="8" style="fill:black">unidad: metros</text><rect x="966" y="1320" width="137" height="40" style="fill:green;stroke:black;stroke-width:1" /><text x="976" y="1330" font-size="8" style="fill:white">2</text><rect x="680" y="1420" width="200" height="40" style="fill:white;stroke:black;stroke-width:1" /><text x="690" y="1430" font-size="10" style="fill:blue">sector</text><path d="M660 1190 C680 1190 660 1440 680 1440" style="fill:transparent;stroke:black" /><rect x="746" y="1420" width="137" height="40" style="fill:green;stroke:black;stroke-width:1" /><text x="756" y="1430" font-size="8" style="fill:white">2</text><rect x="460" y="1520" width="200" height="40" style="fill:white;stroke:black;stroke-width:1" /><text x="470" y="1530" font-size="10" style="fill:blue">tramo</text><path d="M440 840 C460 840 440 1540 460 1540" style="fill:transparent;stroke:black" /><rect x="680" y="1520" width="200" height="40" style="fill:white;stroke:black;stroke-width:1" /><text x="690" y="1530" font-size="10" style="fill:blue">distancia</text><path d="M660 1540 C680 1540 660 1540 680 1540" style="fill:transparent;stroke:black" /><text x="690" y="1540" font-size="8" style="fill:black">unidad: metros</text><rect x="746" y="1520" width="137" height="40" style="fill:green;stroke:black;stroke-width:1" /><text x="756" y="1530" font-size="8" style="fill:white">1780</text><rect x="680" y="1570" width="200" height="40" style="fill:white;stroke:black;stroke-width:1" /><text x="690" y="1580" font-size="10" style="fill:blue">coordenadas</text><path d="M660 1540 C680 1540 660 1590 680 1590" style="fill:transparent;stroke:black" /><rect x="900" y="1570" width="200" height="40" style="fill:white;stroke:black;stroke-width:1" /><text x="910" y="1580" font-size="10" style="fill:blue">longitud</text><path d="M880 1590 C900 1590 880 1590 900 1590" style="fill:transparent;stroke:black" /><text x="910" y="1590" font-size="8" style="fill:black">unidad: grados</text><rect x="966" y="1570" width="137" height="40" style="fill:green;stroke:black;stroke-width:1" /><text x="976" y="1580" font-size="8" style="fill:white">51.4552</text><rect x="900" y="1620" width="200" height="40" style="fill:white;stroke:black;stroke-width:1" /><text x="910" y="1630" font-size="10" style="fill:blue">latitud</text><path d="M880 1590 C900 1590 880 1640 900 1640" style="fill:transparent;stroke:black" /><text x="910" y="1640" font-size="8" style="fill:black">unidad: grados</text><rect x="966" y="1620" width="137" height="40" style="fill:green;stroke:black;stroke-width:1" /><text x="976" y="1630" font-size="8" style="fill:white">25.4907</text><rect x="900" y="1670" width="200" height="40" style="fill:white;stroke:black;stroke-width:1" /><text x="910" y="1680" font-size="10" style="fill:blue">altitud</text><path d="M880 1590 C900 1590 880 1690 900 1690" style="fill:transparent;stroke:black" /><text x="910" y="1690" font-size="8" style="fill:black">unidad: metros</text><rect x="966" y="1670" width="137" height="40" style="fill:green;stroke:black;stroke-width:1" /><text x="976" y="1680" font-size="8" style="fill:white">1</text><rect x="680" y="1770" width="200" height="40" style="fill:white;stroke:black;stroke-width:1" /><text x="690" y="1780" font-size="10" style="fill:blue">sector</text><path d="M660 1540 C680 1540 660 1790 680 1790" style="fill:transparent;stroke:black" /><rect x="746" y="1770" width="137" height="40" style="fill:green;stroke:black;stroke-width:1" /><text x="756" y="1780" font-size="8" style="fill:white">3</text><rect x="240" y="1920" width="200" height="40" style="fill:white;stroke:black;stroke-width:1" /><text x="250" y="1930" font-size="10" style="fill:blue">resultado</text><path d="M220 40 C240 40 220 1940 240 1940" style="fill:transparent;stroke:black" /><rect x="460" y="1920" width="200" height="40" style="fill:white;stroke:black;stroke-width:1" /><text x="470" y="1930" font-size="10" style="fill:blue">vencedor</text><path d="M440 1940 C460 1940 440 1940 460 1940" style="fill:transparent;stroke:black" /><rect x="680" y="1920" width="200" height="40" style="fill:white;stroke:black;stroke-width:1" /><text x="690" y="1930" font-size="10" style="fill:blue">nombrePiloto</text><path d="M660 1940 C680 1940 660 1940 680 1940" style="fill:transparent;stroke:black" /><rect x="746" y="1920" width="137" height="40" style="fill:green;stroke:black;stroke-width:1" /><text x="756" y="1930" font-size="8" style="fill:white">Marc Márquez</text><rect x="460" y="2020" width="200" height="40" style="fill:white;stroke:black;stroke-width:1" /><text x="470" y="2030" font-size="10" style="fill:blue">tiempo</text><path d="M440 1940 C460 1940 440 2040 460 2040" style="fill:transparent;stroke:black" /><rect x="526" y="2020" width="137" height="40" style="fill:green;stroke:black;stroke-width:1" /><text x="536" y="2030" font-size="8" style="fill:white">42m 40.123s</text><rect x="240" y="2120" width="200" height="40" style="fill:white;stroke:black;stroke-width:1" /><text x="250" y="2130" font-size="10" style="fill:blue">clasificacionMundial</text><path d="M220 40 C240 40 220 2140 240 2140" style="fill:transparent;stroke:black" /><rect x="460" y="2120" width="200" height="40" style="fill:white;stroke:black;stroke-width:1" /><text x="470" y="2130" font-size="10" style="fill:blue">piloto</text><path d="M440 2140 C460 2140 440 2140 460 2140" style="fill:transparent;stroke:black" /><rect x="680" y="2120" width="200" height="40" style="fill:white;stroke:black;stroke-width:1" /><text x="690" y="2130" font-size="10" style="fill:blue">posicion</text><path d="M660 2140 C680 2140 660 2140 680 2140" style="fill:transparent;stroke:black" /><rect x="746" y="2120" width="137" height="40" style="fill:green;stroke:black;stroke-width:1" /><text x="756" y="2130" font-size="8" style="fill:white">1</text><rect x="680" y="2170" width="200" height="40" style="fill:white;stroke:black;stroke-width:1" /><text x="690" y="2180" font-size="10" style="fill:blue">nombre</text><path d="M660 2140 C680 2140 660 2190 680 2190" style="fill:transparent;stroke:black" /><rect x="746" y="2170" width="137" height="40" style="fill:green;stroke:black;stroke-width:1" /><text x="756" y="2180" font-size="8" style="fill:white">Marc Márquez</text><rect x="680" y="2220" width="200" height="40" style="fill:white;stroke:black;stroke-width:1" /><text x="690" y="2230" font-size="10" style="fill:blue">puntos</text><path d="M660 2140 C680 2140 660 2240 680 2240" style="fill:transparent;stroke:black" /><rect x="746" y="2220" width="137" height="40" style="fill:green;stroke:black;stroke-width:1" /><text x="756" y="2230" font-size="8" style="fill:white">260</text><rect x="460" y="2320" width="200" height="40" style="fill:white;stroke:black;stroke-width:1" /><text x="470" y="2330" font-size="10" style="fill:blue">piloto</text><path d="M440 2140 C460 2140 440 2340 460 2340" style="fill:transparent;stroke:black" /><rect x="680" y="2320" width="200" height="40" style="fill:white;stroke:black;stroke-width:1" /><text x="690" y="2330" font-size="10" style="fill:blue">posicion</text><path d="M660 2340 C680 2340 660 2340 680 2340" style="fill:transparent;stroke:black" /><rect x="746" y="2320" width="137" height="40" style="fill:green;stroke:black;stroke-width:1" /><text x="756" y="2330" font-size="8" style="fill:white">2</text><rect x="680" y="2370" width="200" height="40" style="fill:white;stroke:black;stroke-width:1" /><text x="690" y="2380" font-size="10" style="fill:blue">nombre</text><path d="M660 2340 C680 2340 660 2390 680 2390" style="fill:transparent;stroke:black" /><rect x="746" y="2370" width="137" height="40" style="fill:green;stroke:black;stroke-width:1" /><text x="756" y="2380" font-size="8" style="fill:white">Francesco Bagnaia</text><rect x="680" y="2420" width="200" height="40" style="fill:white;stroke:black;stroke-width:1" /><text x="690" y="2430" font-size="10" style="fill:blue">puntos</text><path d="M660 2340 C680 2340 660 2440 680 2440" style="fill:transparent;stroke:black" /><rect x="746" y="2420" width="137" height="40" style="fill:green;stroke:black;stroke-width:1" /><text x="756" y="2430" font-size="8" style="fill:white">240</text><rect x="460" y="2520" width="200" height="40" style="fill:white;stroke:black;stroke-width:1" /><text x="470" y="2530" font-size="10" style="fill:blue">piloto</text><path d="M440 2140 C460 2140 440 2540 460 2540" style="fill:transparent;stroke:black" /><rect x="680" y="2520" width="200" height="40" style="fill:white;stroke:black;stroke-width:1" /><text x="690" y="2530" font-size="10" style="fill:blue">posicion</text><path d="M660 2540 C680 2540 660 2540 680 2540" style="fill:transparent;stroke:black" /><rect x="746" y="2520" width="137" height="40" style="fill:green;stroke:black;stroke-width:1" /><text x="756" y="2530" font-size="8" style="fill:white">3</text><rect x="680" y="2570" width="200" height="40" style="fill:white;stroke:black;stroke-width:1" /><text x="690" y="2580" font-size="10" style="fill:blue">nombre</text><path d="M660 2540 C680 2540 660 2590 680 2590" style="fill:transparent;stroke:black" /><rect x="746" y="2570" width="137" height="40" style="fill:green;stroke:black;stroke-width:1" /><text x="756" y="2580" font-size="8" style="fill:white">Jorge Martín</text><rect x="680" y="2620" width="200" height="40" style="fill:white;stroke:black;stroke-width:1" /><text x="690" y="2630" font-size="10" style="fill:blue">puntos</text><path d="M660 2540 C680 2540 660 2640 680 2640" style="fill:transparent;stroke:black" /><rect x="746" y="2620" width="137" height="40" style="fill:green;stroke:black;stroke-width:1" /><text x="756" y="2630" font-size="8" style="fill:white">230</text><rect x="240" y="2770" width="200" height="40" style="fill:white;stroke:black;stroke-width:1" /><text x="250" y="2780" font-size="10" style="fill:blue">referencias</text><path d="M220 40 C240 40 220 2790 240 2790" style="fill:transparent;stroke:black" /><rect x="460" y="2770" width="200" height="40" style="fill:white;stroke:black;stroke-width:1" /><text x="470" y="2780" font-size="10" style="fill:blue">ref</text><path d="M440 2790 C460 2790 440 2790 460 2790" style="fill:transparent;stroke:black" /><text x="470" y="2790" font-size="8" style="fill:black">href: https://www.circuitlusail.com/</text><rect x="526" y="2770" width="137" height="40" style="fill:green;stroke:black;stroke-width:1" /><text x="536" y="2780" font-size="8" style="fill:white">Página oficial de Lusail International Circuit</text><rect x="460" y="2820" width="200" height="40" style="fill:white;stroke:black;stroke-width:1" /><text x="470" y="2830" font-size="10" style="fill:blue">ref</text><path d="M440 2790 C460 2790 440 2840 460 2840" style="fill:transparent;stroke:black" /><text x="470" y="2840" font-size="8" style="fill:black">href: https://es.wikipedia.org/wiki/Circuito_Internacional_de_Lusail</text><rect x="526" y="2820" width="137" height="40" style="fill:green;stroke:black;stroke-width:1" /><text x="536" y="2830" font-size="8" style="fill:white">Wikipedia:
            Circuito Internacional de Lusail</text><rect x="460" y="2870" width="200" height="40" style="fill:white;stroke:black;stroke-width:1" /><text x="470" y="2880" font-size="10" style="fill:blue">ref</text><path d="M440 2790 C460 2790 440 2890 460 2890" style="fill:transparent;stroke:black" /><text x="470" y="2890" font-size="8" style="fill:black">href: https://www.motogp.com/es/gp-results/2026/qatar</text><rect x="526" y="2870" width="137" height="40" style="fill:green;stroke:black;stroke-width:1" /><text x="536" y="2880" font-size="8" style="fill:white">Resultados oficiales de MotoGP
            Qatar</text><rect x="240" y="2970" width="200" height="40" style="fill:white;stroke:black;stroke-width:1" /><text x="250" y="2980" font-size="10" style="fill:blue">galeriaFotos</text><path d="M220 40 C240 40 220 2990 240 2990" style="fill:transparent;stroke:black" /><rect x="460" y="2970" width="200" height="40" style="fill:white;stroke:black;stroke-width:1" /><text x="470" y="2980" font-size="10" style="fill:blue">foto</text><path d="M440 2990 C460 2990 440 2990 460 2990" style="fill:transparent;stroke:black" /><text x="470" y="2990" font-size="8" style="fill:black">fichero: media/lusail_noche.jpg</text><text x="470" y="3000" font-size="8" style="fill:black">titulo: Circuito de Lusail iluminado</text><rect x="526" y="2970" width="137" height="40" style="fill:green;stroke:black;stroke-width:1" /><text x="536" y="2980" font-size="8" style="fill:white">
            lusail_noche.jpg</text><rect x="460" y="3020" width="200" height="40" style="fill:white;stroke:black;stroke-width:1" /><text x="470" y="3030" font-size="10" style="fill:blue">foto</text><path d="M440 2990 C460 2990 440 3040 460 3040" style="fill:transparent;stroke:black" /><text x="470" y="3040" font-size="8" style="fill:black">fichero: media/marquez_lusail.jpg</text><text x="470" y="3050" font-size="8" style="fill:black">titulo: Marc Márquez en Lusail</text><rect x="526" y="3020" width="137" height="40" style="fill:green;stroke:black;stroke-width:1" /><text x="536" y="3030" font-size="8" style="fill:white">marquez_lusail.jpg</text><rect x="240" y="3120" width="200" height="40" style="fill:white;stroke:black;stroke-width:1" /><text x="250" y="3130" font-size="10" style="fill:blue">galeriaVideos</text><path d="M220 40 C240 40 220 3140 240 3140" style="fill:transparent;stroke:black" /><rect x="460" y="3120" width="200" height="40" style="fill:white;stroke:black;stroke-width:1" /><text x="470" y="3130" font-size="10" style="fill:blue">video</text><path d="M440 3140 C460 3140 440 3140 460 3140" style="fill:transparent;stroke:black" /><text x="470" y="3140" font-size="8" style="fill:black">fichero: media/lusail_resumen.mp4</text><text x="470" y="3150" font-size="8" style="fill:black">titulo: Resumen de la carrera en Lusail</text><rect x="526" y="3120" width="137" height="40" style="fill:green;stroke:black;stroke-width:1" /><text x="536" y="3130" font-size="8" style="fill:white">
            lusail_resumen.mp4</text></svg>